<svg xmlns="http://www.w3.org/2000/svg">
    <symbol id="icon-burger" viewBox="0 0 24 24" fill="none" xmlns="http://www.w3.org/2000/svg">
        <path d="M4 18L20 18" stroke="currentColor" stroke-width="2" stroke-linecap="round"/>
        <path d="M4 12L20 12" stroke="currentColor" stroke-width="2" stroke-linecap="round"/>
        <path d="M4 6L20 6" stroke="currentColor" stroke-width="2" stroke-linecap="round"/>
    </symbol>

    <symbol id="icon-arrow-right" viewBox="0 0 5 8" fill="none" xmlns="http://www.w3.org/2000/svg">
        <path d="M0.0591507 0.768491C0.0212939 0.730943 0 0.679832 0 0.626512C0 0.573193 0.0212939 0.522081 0.0591507 0.484534L0.483086 0.0605983C0.519374 0.0219332 0.570039 0 0.623065 0C0.676091 0 0.726756 0.0219332 0.763044 0.0605983L4.43849 3.73604C4.49475 3.79224 4.5264 3.86848 4.52647 3.94801V4.05199C4.5264 4.13152 4.49475 4.20776 4.43849 4.26396L0.763044 7.9394C0.726756 7.97807 0.676091 8 0.623065 8C0.570039 8 0.519374 7.97807 0.483086 7.9394L0.0591507 7.51547C0.0212939 7.47792 0 7.42681 0 7.37349C0 7.32017 0.0212939 7.26906 0.0591507 7.23151L3.29066 4L0.0591507 0.768491Z" fill="black"/>
    </symbol>

    <symbol viewBox="0 0 24 24" fill="none" xmlns="http://www.w3.org/2000/svg">
        <path fill-rule="evenodd" clip-rule="evenodd" d="M9.29289 1.29289C9.48043 1.10536 9.73478 1 10 1H18C19.6569 1 21 2.34315 21 4V20C21 21.6569 19.6569 23 18 23H6C4.34315 23 3 21.6569 3 20V8C3 7.73478 3.10536 7.48043 3.29289 7.29289L9.29289 1.29289ZM18 3H11V8C11 8.55228 10.5523 9 10 9H5V20C5 20.5523 5.44772 21 6 21H18C18.5523 21 19 20.5523 19 20V4C19 3.44772 18.5523 3 18 3ZM6.41421 7H9V4.41421L6.41421 7ZM7 13C7 12.4477 7.44772 12 8 12H16C16.5523 12 17 12.4477 17 13C17 13.5523 16.5523 14 16 14H8C7.44772 14 7 13.5523 7 13ZM7 17C7 16.4477 7.44772 16 8 16H16C16.5523 16 17 16.4477 17 17C17 17.5523 16.5523 18 16 18H8C7.44772 18 7 17.5523 7 17Z" fill="currentColor"/>
    </symbol>

    <symbol fill="currentColor" id="icon-doc" xmlns="http://www.w3.org/2000/svg" xmlns:xlink="http://www.w3.org/1999/xlink"
         viewBox="0 0 45.057 45.057"
         xml:space="preserve">
<g>
	<g id="_x31_33_61_">
		<g>
			<path d="M31.76,33.867c-2.154,0-16.309,0-18.465,0c-1.553,0-1.553,2.5,0,2.5c2.156,0,16.311,0,18.465,0
				C33.314,36.367,33.314,33.867,31.76,33.867z"/>
            <path d="M31.76,25.341c-2.154,0-16.309,0-18.465,0c-1.553,0-1.553,2.5,0,2.5c2.156,0,16.311,0,18.465,0
				C33.314,27.841,33.314,25.341,31.76,25.341z"/>
            <path d="M31.76,29.382c-2.154,0-16.309,0-18.465,0c-1.553,0-1.553,2.5,0,2.5c2.156,0,16.311,0,18.465,0
				C33.314,31.882,33.314,29.382,31.76,29.382z"/>
            <path d="M13.331,11.542c-0.664,0-1.199,0.232-1.199,0.521v10.705c0,0.287,0.535,0.521,1.199,0.521h18.344
				c0.666,0,1.201-0.234,1.201-0.521V12.063c0-0.289-0.535-0.521-1.201-0.521H13.331z"/>
            <path d="M33.43,0H5.18v45.057h34.697V6.251L33.43,0z M36.878,42.056H8.18V3h23.705v4.76h4.992L36.878,42.056L36.878,42.056z"/>
		</g>
        <g>
			<path d="M31.76,33.867c-2.154,0-16.309,0-18.465,0c-1.553,0-1.553,2.5,0,2.5c2.156,0,16.311,0,18.465,0
				C33.314,36.367,33.314,33.867,31.76,33.867z"/>
            <path d="M31.76,25.341c-2.154,0-16.309,0-18.465,0c-1.553,0-1.553,2.5,0,2.5c2.156,0,16.311,0,18.465,0
				C33.314,27.841,33.314,25.341,31.76,25.341z"/>
            <path d="M31.76,29.382c-2.154,0-16.309,0-18.465,0c-1.553,0-1.553,2.5,0,2.5c2.156,0,16.311,0,18.465,0
				C33.314,31.882,33.314,29.382,31.76,29.382z"/>
            <path d="M13.331,11.542c-0.664,0-1.199,0.232-1.199,0.521v10.705c0,0.287,0.535,0.521,1.199,0.521h18.344
				c0.666,0,1.201-0.234,1.201-0.521V12.063c0-0.289-0.535-0.521-1.201-0.521H13.331z"/>
            <path d="M33.43,0H5.18v45.057h34.697V6.251L33.43,0z M36.878,42.056H8.18V3h23.705v4.76h4.992L36.878,42.056L36.878,42.056z"/>
		</g>
	</g>
</g>
</symbol>

    <symbol id="icon-arrow-left" viewBox="0 0 24 24" fill="currentColor" xmlns="http://www.w3.org/2000/svg">
        <path fill-rule="evenodd" clip-rule="evenodd" d="M11.7071 4.29289C12.0976 4.68342 12.0976 5.31658 11.7071 5.70711L6.41421 11H20C20.5523 11 21 11.4477 21 12C21 12.5523 20.5523 13 20 13H6.41421L11.7071 18.2929C12.0976 18.6834 12.0976 19.3166 11.7071 19.7071C11.3166 20.0976 10.6834 20.0976 10.2929 19.7071L3.29289 12.7071C3.10536 12.5196 3 12.2652 3 12C3 11.7348 3.10536 11.4804 3.29289 11.2929L10.2929 4.29289C10.6834 3.90237 11.3166 3.90237 11.7071 4.29289Z" fill="currentColor"/>
    </symbol>

    <symbol id="icon-close" viewBox="0 0 24 24" fill="currentColor" xmlns="http://www.w3.org/2000/svg">
        <path d="M20.7457 3.32851C20.3552 2.93798 19.722 2.93798 19.3315 3.32851L12.0371 10.6229L4.74275 3.32851C4.35223 2.93798 3.71906 2.93798 3.32854 3.32851C2.93801 3.71903 2.93801 4.3522 3.32854 4.74272L10.6229 12.0371L3.32856 19.3314C2.93803 19.722 2.93803 20.3551 3.32856 20.7457C3.71908 21.1362 4.35225 21.1362 4.74277 20.7457L12.0371 13.4513L19.3315 20.7457C19.722 21.1362 20.3552 21.1362 20.7457 20.7457C21.1362 20.3551 21.1362 19.722 20.7457 19.3315L13.4513 12.0371L20.7457 4.74272C21.1362 4.3522 21.1362 3.71903 20.7457 3.32851Z" fill="currentColor"/>
    </symbol>

</svg>