<svg version="1.0" xmlns="http://www.w3.org/2000/svg"
 width="600.000000pt" height="771.000000pt" viewBox="0 0 600.000000 771.000000"
 preserveAspectRatio="xMidYMid meet">
<g transform="translate(0.000000,771.000000) scale(0.100000,-0.100000)"
fill="#000000" stroke="none">
<path d="M2601 4902 l-383 -377 -529 4 c-556 3 -567 3 -554 -40 4 -12 -1 -19
-15 -24 -26 -8 -52 -58 -53 -104 0 -21 -8 -41 -17 -48 -9 -6 -16 -25 -15 -45
0 -18 -6 -39 -12 -46 -8 -8 -13 -39 -13 -73 0 -33 -4 -59 -10 -59 -14 0 -12
-37 3 -43 9 -3 9 -9 1 -24 -6 -10 -15 -34 -19 -53 -4 -19 -13 -38 -19 -42 -20
-13 9 -42 62 -62 40 -14 53 -25 61 -48 12 -33 -2 -64 -31 -74 -10 -3 -18 -11
-18 -18 0 -26 31 -73 55 -84 30 -14 32 -37 5 -52 -29 -16 -24 -30 8 -24 15 3
47 0 72 -6 25 -6 59 -15 75 -19 22 -5 29 -12 27 -27 -1 -11 6 -29 16 -40 13
-14 18 -31 15 -59 -4 -49 12 -90 49 -130 15 -16 28 -35 28 -41 0 -22 26 -32
95 -38 39 -3 97 -8 130 -10 299 -26 475 -37 532 -33 l67 5 43 -42 44 -41 -465
3 -466 3 0 -30 0 -30 488 3 489 3 316 -314 c191 -190 322 -313 331 -311 9 2
157 144 329 315 l313 313 524 0 524 0 0 25 0 26 -474 -1 c-260 0 -484 -3 -496
-6 -14 -4 -21 -11 -17 -17 4 -6 0 -8 -9 -4 -9 3 -20 1 -25 -4 -5 -5 -17 -4
-29 5 -24 18 -18 24 30 29 27 3 48 15 79 46 l42 42 195 4 c107 2 231 8 275 14
44 5 130 13 190 16 80 5 117 12 135 25 16 11 65 22 132 30 l107 13 12 34 c18
54 9 63 -66 63 -70 0 -86 14 -32 28 21 6 35 5 39 -2 5 -8 8 -7 8 2 0 6 7 12
15 12 8 0 15 7 15 16 0 10 -6 14 -15 11 -8 -4 -17 -2 -20 3 -3 5 5 11 17 13
13 2 -24 4 -82 4 l-105 -1 80 -6 c44 -3 76 -8 70 -9 -16 -5 -239 0 -244 5 -12
12 21 16 168 21 161 6 161 6 161 29 0 13 -4 24 -10 24 -5 0 -7 6 -4 13 6 17
-23 42 -58 51 -16 3 -28 11 -28 16 0 6 12 10 28 11 15 0 35 2 45 4 22 4 50 38
36 43 -5 2 -2 10 5 18 8 8 13 22 11 32 -2 12 7 25 25 36 19 11 27 22 23 32 -5
13 -17 14 -67 9 -33 -4 -68 -14 -76 -22 -13 -13 -10 -14 32 -10 50 6 63 1 48
-19 -10 -11 -15 -28 -24 -73 -3 -18 -26 -27 -26 -11 0 6 5 8 12 4 7 -4 8 -3 4
4 -9 16 -38 3 -32 -14 4 -11 -1 -13 -18 -8 -18 4 -25 1 -31 -18 -13 -41 -13
-48 -4 -42 5 3 9 0 9 -6 0 -6 5 -8 10 -5 6 3 10 1 10 -5 0 -6 7 -10 16 -8 10
2 19 -3 21 -9 3 -8 -6 -13 -24 -14 l-28 -1 29 -7 c38 -8 47 -31 12 -31 -14 0
-26 5 -26 10 0 6 -10 10 -22 9 -22 0 -22 -1 -3 -9 15 -6 16 -9 4 -9 -9 -1 -18
2 -22 5 -3 3 -40 8 -81 11 -59 3 -76 1 -76 -9 0 -8 -3 -9 -8 -3 -4 6 -41 10
-82 10 -41 0 -172 4 -290 9 -283 12 -380 12 -380 -1 0 -5 66 -8 147 -9 291 -2
443 -6 443 -13 0 -3 30 -5 67 -3 68 3 68 3 45 -16 -22 -17 -23 -20 -7 -35 9
-10 22 -14 28 -10 7 4 8 0 4 -11 -4 -10 -7 -19 -7 -20 0 -2 -11 -1 -25 2 -14
2 -23 8 -20 12 3 4 -1 8 -8 7 -6 0 -21 1 -32 2 -18 1 -19 2 -2 12 9 5 17 15
17 22 0 8 -3 8 -8 2 -14 -19 -69 -45 -59 -27 3 4 -12 7 -34 8 -21 0 -36 -3
-33 -8 3 -4 -2 -8 -11 -8 -10 0 -13 -5 -9 -12 4 -7 -2 -5 -13 5 -11 9 -25 17
-31 17 -7 0 -12 6 -12 13 0 9 -2 9 -9 -1 -8 -14 -20 -15 -91 -10 -25 2 -60 1
-77 -3 -18 -4 -33 -3 -33 2 0 5 5 9 12 9 6 0 8 3 5 6 -4 4 -13 2 -20 -5 -8 -6
-36 -10 -63 -9 -34 2 -53 -1 -62 -12 -9 -9 -11 -10 -6 -1 5 10 1 11 -14 7 -12
-4 -26 -1 -36 9 -9 9 -16 12 -16 6 0 -6 -8 -11 -17 -11 -10 0 -31 -7 -48 -16
-16 -8 -26 -12 -22 -8 4 4 -7 14 -25 21 -23 10 -33 11 -39 2 -4 -6 -12 -9 -18
-5 -7 5 -9 1 -5 -9 5 -13 2 -13 -24 2 -17 10 -28 22 -24 28 3 5 -4 2 -15 -8
-11 -9 -23 -14 -28 -10 -4 5 -5 -1 -2 -12 6 -17 5 -18 -5 -5 -7 8 -24 17 -38
18 -14 2 -27 8 -28 13 -7 17 -81 -34 -93 -63 -6 -16 -14 -26 -17 -23 -3 3 -12
-5 -18 -17 l-13 -23 3 25 c1 14 6 31 10 38 4 7 3 19 -3 26 -6 7 -7 17 -3 21 4
5 1 5 -5 1 -7 -4 -13 -3 -13 3 0 5 -15 7 -32 5 -25 -4 -29 -2 -18 5 13 9 13
11 -2 11 -10 0 -18 -4 -18 -8 0 -4 -8 -8 -18 -9 -9 -1 -22 -2 -27 -3 -26 -6
-45 2 -46 18 0 13 -2 12 -9 -5 -5 -12 -18 -27 -29 -33 -23 -12 -81 -2 -61 10
15 9 -120 6 -141 -3 -14 -7 -72 14 -66 24 1 2 -3 -1 -9 -8 -6 -7 -13 -10 -17
-7 -3 3 -8 -4 -12 -16 -7 -24 -28 -21 -81 11 -17 11 -34 15 -40 10 -15 -14
-73 -1 -67 15 3 8 0 14 -6 14 -6 0 -10 -6 -9 -12 2 -8 -10 -13 -30 -15 -18 0
-39 -7 -47 -13 -13 -11 -19 -7 -17 11 1 3 -10 5 -23 3 -14 -1 -27 2 -30 7 -3
5 -15 3 -25 -4 -16 -9 -24 -9 -41 2 -19 11 -21 11 -16 -4 6 -13 3 -15 -16 -9
-12 5 -34 7 -49 6 -16 0 -28 3 -28 9 0 6 5 7 12 3 7 -5 8 -3 3 6 -6 10 -10 10
-19 -2 -11 -15 -81 -34 -72 -20 2 4 -9 7 -25 7 -16 0 -29 -3 -29 -7 0 -5 -7
-8 -16 -8 -9 0 -12 -5 -8 -12 5 -9 3 -9 -9 1 -9 7 -15 17 -12 21 9 15 -50 1
-61 -14 -10 -14 -13 -15 -24 -1 -7 8 -17 15 -23 15 -6 0 -20 8 -31 18 -20 16
-20 16 -6 -2 14 -17 13 -18 -7 -12 -12 4 -24 2 -28 -4 -10 -16 -28 -12 -22 5
4 8 1 17 -6 21 -7 4 -9 4 -5 -1 4 -4 3 -17 -3 -28 -9 -15 -8 -18 3 -12 10 6
11 5 1 -5 -10 -11 -16 -10 -32 4 -14 13 -36 17 -88 17 -120 -1 -124 -1 -117
11 5 7 3 8 -6 3 -7 -4 -28 -11 -47 -15 -30 -7 -34 -6 -29 8 5 14 4 14 -8 -1
-9 -12 -16 -14 -21 -8 -3 6 -12 11 -18 11 -7 0 -6 -4 3 -11 12 -9 12 -10 -3
-5 -10 3 -21 6 -23 6 -3 0 -2 4 1 10 4 7 -3 7 -20 0 -34 -13 -38 -13 -29 3 4
6 -9 -6 -30 -28 -20 -22 -36 -49 -36 -60 0 -38 12 -64 31 -70 11 -4 16 -11 13
-17 -4 -6 1 -8 13 -4 11 4 32 2 47 -3 22 -9 30 -6 51 15 14 14 30 22 37 18 6
-4 8 -3 5 4 -9 13 2 44 12 37 5 -2 7 -18 6 -34 -1 -17 2 -28 5 -26 4 3 13 -2
20 -10 12 -14 16 -13 36 6 13 12 21 26 17 32 -4 6 -1 7 7 2 10 -6 12 -1 8 18
-3 15 -1 24 3 21 5 -3 9 -15 9 -28 0 -13 9 -33 20 -46 11 -13 20 -18 20 -12 0
7 6 12 14 12 7 0 19 6 25 14 22 26 73 26 104 0 32 -27 78 -31 119 -10 23 12
27 12 33 -1 3 -9 8 -13 12 -10 3 4 15 2 26 -4 15 -9 18 -8 12 2 -6 9 -4 11 8
6 9 -3 18 1 22 11 5 14 7 14 15 2 8 -12 10 -12 15 2 4 9 5 31 3 49 l-3 33 -25
-37 c-16 -24 -33 -37 -47 -37 -21 0 -23 4 -23 60 0 53 2 60 20 60 18 0 20 -5
14 -42 l-6 -43 31 35 c17 19 31 38 31 43 0 4 11 7 25 7 24 0 25 -2 25 -65 0
-52 -3 -63 -14 -59 -9 3 -19 -4 -26 -16 -7 -14 -8 -20 -1 -16 5 4 17 -6 26
-21 15 -26 14 -16 -2 24 -4 10 -2 14 4 10 15 -9 33 15 35 47 3 31 21 30 23 -2
1 -13 7 -28 13 -34 16 -16 62 -19 59 -5 -1 7 7 11 18 9 11 -2 16 1 10 5 -13
10 -16 43 -4 43 5 0 9 -9 9 -19 0 -27 27 -52 47 -44 11 4 14 3 9 -5 -4 -7 -2
-12 3 -12 6 0 11 4 11 9 0 5 32 8 70 6 39 -2 68 0 66 4 -3 4 4 12 14 19 14 9
21 8 30 -3 6 -8 8 -20 4 -26 -5 -8 -3 -9 7 -4 7 5 22 10 31 10 14 1 17 -3 12
-18 -5 -17 -4 -18 9 -6 8 8 12 21 9 29 -5 12 -3 13 9 4 15 -13 100 -24 93 -13
-7 13 38 18 57 6 14 -9 22 -8 37 6 10 9 22 14 27 10 4 -5 5 1 2 12 -7 20 -7
20 8 1 8 -11 15 -22 15 -25 0 -12 50 -9 50 3 0 6 7 2 15 -8 8 -11 15 -16 15
-10 0 11 75 12 86 1 4 -4 12 -7 18 -7 6 0 4 5 -4 10 -19 12 129 8 149 -4 10
-6 12 -5 7 2 -5 8 1 11 16 9 13 -1 26 -9 30 -17 6 -13 7 -13 7 1 1 9 8 22 16
29 8 7 15 23 15 36 0 35 11 29 43 -21 16 -25 34 -45 40 -45 7 0 6 5 -3 11 -12
8 -10 9 9 4 12 -4 44 -1 69 6 35 10 47 10 50 1 4 -13 48 -6 70 11 8 6 17 5 28
-4 9 -7 30 -14 47 -15 18 -1 26 0 19 3 -6 3 -10 9 -7 13 3 5 17 4 30 -2 13 -6
23 -14 21 -17 -3 -4 13 -5 34 -3 49 5 90 41 90 79 1 27 1 27 16 8 9 -12 11
-21 4 -23 -6 -2 -2 -15 10 -31 11 -16 16 -32 12 -36 -4 -5 0 -4 8 1 8 4 21 9
28 10 19 3 42 36 37 52 -2 6 0 12 5 12 6 0 10 -8 10 -19 0 -10 7 -24 16 -32
17 -14 114 -30 114 -18 0 4 20 9 44 10 41 4 43 3 33 -16 -9 -18 -9 -19 7 -6
19 16 89 24 80 10 -3 -5 2 -9 11 -9 9 0 13 4 10 10 -3 6 1 7 9 4 9 -3 16 -1
16 5 0 8 6 9 18 2 9 -5 34 -8 55 -7 26 1 36 -2 33 -11 -3 -7 1 -10 9 -6 8 3
13 8 11 12 -3 4 4 7 14 8 10 1 21 -5 24 -12 3 -10 0 -12 -11 -8 -10 4 -14 2
-10 -4 4 -6 -8 -10 -29 -11 -19 -1 -40 -5 -46 -8 -8 -5 -9 -1 -4 11 6 16 4 16
-10 4 -18 -15 -66 -21 -58 -7 3 4 -2 8 -10 8 -9 0 -16 -5 -16 -12 0 -9 -3 -9
-12 0 -7 7 -17 12 -23 12 -5 0 -3 -5 5 -10 13 -8 13 -10 -2 -10 -10 0 -23 6
-30 13 -10 12 -15 11 -31 -3 -22 -21 -97 -29 -297 -30 -100 0 -140 3 -130 10
8 5 11 10 7 10 -4 0 -20 -8 -34 -17 -15 -10 -24 -13 -20 -6 4 6 2 15 -4 19 -8
4 -9 3 -5 -4 8 -13 -23 -31 -44 -25 -13 4 -13 3 0 -6 8 -5 19 -7 25 -4 5 4 1
-3 -9 -15 -11 -12 -21 -20 -24 -17 -3 2 -16 -7 -29 -21 -12 -14 -23 -21 -23
-16 0 13 44 52 61 53 8 0 4 4 -8 9 -13 5 -23 13 -23 18 0 5 -6 9 -12 9 -7 0
-26 4 -43 8 -17 4 -25 3 -18 -2 7 -5 -6 -8 -35 -8 -26 0 -50 5 -54 10 -5 7 -8
6 -8 0 0 -6 -21 -12 -47 -13 -27 0 -111 -4 -188 -7 -77 -3 -289 -7 -471 -9
-181 -1 -335 -5 -341 -9 -6 -4 -13 -1 -16 5 -3 10 -7 10 -19 1 -8 -7 -18 -10
-21 -7 -9 10 -97 11 -97 1 0 -4 -6 -5 -12 -1 -9 5 -10 4 -3 -4 6 -6 37 -13 70
-15 71 -5 945 10 1163 21 83 4 151 5 150 2 -2 -3 -24 -25 -49 -48 l-46 -42
-608 0 c-583 -1 -609 0 -629 18 -51 46 -82 58 -77 30 0 -5 -3 -8 -9 -8 -5 0
-10 6 -10 13 0 17 -36 47 -58 47 -10 0 -24 6 -31 13 -10 10 -11 8 -5 -7 5 -14
4 -17 -5 -12 -6 4 -60 8 -119 8 -59 0 -110 3 -114 5 -4 2 -49 6 -100 8 -89 4
-215 12 -288 19 -19 2 -44 7 -54 12 -13 5 -21 3 -24 -4 -3 -9 -9 -9 -23 -2
-10 6 -19 7 -19 3 0 -4 -7 3 -16 15 -13 19 -14 26 -3 40 11 14 11 15 0 5 -20
-17 -77 54 -72 89 9 63 8 77 -5 82 -9 3 -12 10 -9 16 3 5 1 10 -5 10 -6 0 -9
4 -5 9 3 5 1 12 -5 16 -5 3 -10 11 -10 17 0 6 10 3 22 -8 12 -10 19 -14 15 -8
-4 8 9 10 43 9 28 -1 50 2 50 6 0 5 -21 10 -47 10 -55 1 -61 2 -88 13 -44 17
-72 25 -113 31 -35 6 -41 9 -31 21 9 11 9 14 0 14 -7 0 -10 4 -6 9 3 5 -4 12
-15 16 -11 4 -18 11 -15 16 4 5 0 9 -7 9 -17 0 -41 37 -33 51 4 5 11 6 17 3 6
-4 8 -3 5 3 -4 6 0 19 8 29 14 18 14 18 10 -3 -2 -13 0 -25 6 -28 5 -4 9 5 9
19 0 14 -4 27 -9 30 -5 4 -8 24 -7 45 2 27 -1 38 -9 34 -7 -2 -15 3 -18 11 -4
9 -15 16 -26 16 -11 0 -23 5 -26 11 -4 6 -13 8 -21 5 -19 -7 -18 2 4 22 9 10
13 14 8 10 -6 -5 -17 -8 -25 -8 -13 0 -14 2 -2 9 8 5 11 16 8 26 -4 9 -3 14 3
10 6 -4 8 3 6 17 -2 13 3 31 12 41 12 13 13 20 4 29 -13 13 -16 32 -5 25 5 -3
8 18 7 46 0 29 6 67 13 86 7 18 13 44 13 57 0 13 5 24 11 24 5 0 8 4 4 9 -3 6
2 14 11 19 11 6 13 11 5 16 -8 5 -8 13 -1 27 6 11 9 23 6 28 -3 4 10 24 29 44
19 21 33 37 30 37 -3 0 -1 9 5 19 9 19 22 19 302 16 602 -8 748 -7 763 5 18
15 75 16 84 1 7 -11 48 -14 283 -24 32 -1 58 -5 58 -8 0 -4 18 -3 40 1 22 4
40 5 40 1 0 -3 72 -6 160 -7 121 -1 163 -4 176 -15 15 -12 17 -12 9 0 -6 11
-4 13 11 7 10 -4 24 -8 29 -9 6 -1 13 -6 18 -12 4 -6 10 -5 15 3 10 15 45 5
39 -12 -3 -6 -10 -10 -17 -8 -8 2 -10 -3 -7 -13 4 -8 1 -15 -6 -15 -7 -1 -1
-7 12 -14 23 -13 23 -14 5 -19 -10 -2 4 -3 31 -2 28 1 58 -3 69 -8 13 -6 16
-6 12 2 -4 6 -3 11 3 11 5 0 13 -4 16 -10 3 -5 11 -10 16 -10 6 0 8 4 5 8 -3
5 80 8 184 8 103 -1 186 2 184 6 -7 11 59 -3 75 -16 12 -9 13 -8 6 3 -6 11 -2
13 18 9 17 -3 28 0 32 10 3 9 13 12 26 9 14 -4 18 -2 12 7 -4 6 3 0 16 -14 13
-14 20 -19 15 -11 -5 11 -3 13 9 8 34 -13 119 -17 425 -22 172 -2 316 -7 321
-9 6 -4 118 -17 159 -19 14 0 15 -7 2 -27 -8 -12 -10 -12 -10 -1 0 8 -3 11 -6
8 -4 -4 -1 -13 6 -22 7 -9 10 -18 7 -22 -4 -3 1 -12 11 -20 9 -8 12 -12 5 -9
-6 4 -31 9 -55 12 -24 4 -45 8 -47 10 -2 2 -10 -1 -17 -7 -8 -7 -14 -7 -19 1
-3 5 -16 10 -27 10 -12 0 -18 -3 -15 -7 4 -3 -2 -12 -13 -20 -11 -8 -20 -20
-20 -28 0 -8 -4 -17 -10 -20 -6 -4 -7 1 -4 12 5 15 4 16 -5 3 -6 -8 -8 -23 -5
-33 3 -10 -1 -20 -11 -23 -9 -4 -14 -13 -11 -20 3 -7 -3 -19 -12 -26 -9 -7
-17 -19 -18 -25 -2 -30 -5 -34 -14 -28 -5 3 -10 -1 -10 -10 0 -10 -5 -14 -12
-9 -10 6 -10 4 0 -7 15 -17 16 -33 0 -23 -8 5 -9 2 -5 -9 7 -18 -9 -19 -29 -2
-8 7 -9 16 -3 27 7 13 6 16 -4 12 -15 -6 -74 101 -69 125 2 7 -1 10 -7 6 -6
-3 -9 0 -6 8 3 7 -8 29 -24 48 -30 34 -31 34 -113 34 -104 1 -118 -11 -87 -73
19 -37 26 -59 28 -87 1 -5 6 -3 11 5 8 12 10 11 10 -6 0 -12 9 -33 21 -48 11
-14 17 -31 13 -38 -4 -7 -3 -9 1 -5 11 10 47 -62 38 -76 -3 -6 -1 -7 5 -3 9 6
26 -13 32 -36 1 -4 4 -17 7 -28 3 -11 10 -17 16 -13 6 4 8 0 4 -10 -4 -10 -2
-17 4 -17 6 0 8 -7 5 -16 -3 -8 -2 -12 4 -9 14 9 12 -8 -2 -25 -11 -12 -10
-12 3 -2 18 13 30 7 23 -13 -3 -7 -1 -16 5 -20 7 -4 8 0 4 11 -5 13 -3 15 8 8
8 -4 49 -9 91 -10 73 -1 79 1 102 27 14 15 21 30 18 34 -4 4 2 5 12 3 11 -1
21 4 23 12 4 13 3 13 -6 0 -17 -24 -13 3 7 44 10 20 22 33 26 29 4 -4 7 -1 5
7 -4 22 22 70 34 63 6 -3 7 -1 3 6 -4 6 3 28 16 49 12 20 22 44 20 52 -2 11 1
11 12 -3 12 -16 14 -16 20 -1 9 23 7 31 -4 14 -24 -37 -7 15 21 65 17 30 30
57 30 60 -3 16 0 25 7 25 4 0 8 -10 9 -22 1 -12 9 -26 18 -30 8 -5 13 -13 10
-19 -4 -5 -1 -9 4 -9 6 0 10 -3 9 -7 -3 -17 15 -43 31 -43 9 0 12 -3 6 -8 -16
-11 -15 -41 1 -35 8 3 14 0 14 -6 0 -6 9 -11 19 -11 15 0 18 -6 15 -35 -1 -19
1 -37 6 -40 6 -4 7 2 3 12 -5 14 -2 14 16 -4 12 -13 28 -23 35 -23 8 0 17 -7
20 -16 3 -9 13 -14 21 -11 9 4 12 1 9 -7 -6 -16 -1 -15 -156 -24 -70 -5 -129
-10 -130 -13 -2 -2 -11 -13 -21 -25 -10 -12 -15 -28 -11 -38 8 -22 24 -20 24
3 0 35 26 44 121 42 88 -2 175 15 205 40 17 14 18 39 2 39 -6 0 -35 12 -65 26
-46 23 -53 30 -53 56 0 23 -6 31 -30 39 -31 11 -38 23 -20 34 18 11 10 25 -14
25 -34 0 -42 19 -17 36 27 19 18 34 -20 34 -24 0 -30 4 -27 19 2 11 -7 30 -20
44 l-22 24 21 27 c20 26 21 28 3 40 -10 8 -57 19 -104 25 -97 12 -805 35 -819
26 -6 -3 -213 196 -461 442 -249 247 -457 449 -464 450 -6 2 -184 -167 -395
-375z m409 332 c0 -8 4 -13 9 -10 5 3 14 -1 21 -9 7 -8 9 -15 4 -15 -5 -1 4
-8 19 -16 15 -8 25 -19 21 -25 -3 -5 -24 8 -47 31 -30 28 -47 38 -62 34 -20
-5 -20 -5 -1 10 25 20 36 20 36 0z m-56 -45 c-3 -5 -10 -7 -15 -4 -5 4 -9 -1
-9 -10 0 -9 -4 -14 -9 -10 -6 3 -24 -13 -42 -35 -18 -22 -37 -40 -42 -40 -5 0
17 27 48 60 32 32 62 57 67 54 4 -3 6 -10 2 -15z m288 -234 c134 -132 319
-314 411 -404 154 -150 184 -183 157 -166 -6 3 -150 6 -320 5 -177 0 -310 3
-310 9 0 18 29 32 66 31 59 -1 115 11 111 24 -4 11 -82 22 -192 27 -33 1 -67
5 -75 9 -8 4 -114 10 -235 14 -453 12 -539 18 -549 34 -6 11 -10 11 -16 2 -5
-9 -9 -9 -14 -1 -4 6 -2 11 4 11 6 0 8 5 5 10 -4 6 -3 9 2 8 8 -3 49 30 84 66
10 11 21 17 24 14 3 -2 -18 -24 -46 -48 -37 -31 -48 -45 -40 -53 8 -8 101 77
338 313 180 179 329 329 331 333 2 4 8 7 13 5 4 -2 118 -111 251 -243z m-137
185 c-3 -5 2 -10 11 -10 10 0 15 -3 11 -6 -3 -3 15 -24 40 -46 64 -55 76 -68
64 -68 -5 0 -15 8 -20 18 -6 9 -11 14 -11 10 0 -9 -110 96 -110 105 0 4 5 7
11 7 5 0 7 -4 4 -10z m-288 -82 c-3 -8 -6 -5 -6 6 -1 11 2 17 5 13 3 -3 4 -12
1 -19z m-20 -13 c0 -8 -4 -12 -8 -10 -10 7 -30 -20 -22 -29 4 -4 0 -4 -9 -1
-15 6 -13 10 10 31 15 13 27 24 28 24 0 0 1 -7 1 -15z m516 -106 c10 -9 14
-19 9 -23 -5 -3 -24 14 -42 37 -33 41 -27 39 33 -14z m-605 27 c-10 -7 -14
-17 -10 -21 4 -5 1 -5 -5 -1 -8 4 -13 1 -13 -7 0 -8 -7 -17 -15 -21 -22 -8 -2
28 27 48 27 19 40 21 16 2z m684 -107 c27 -27 48 -52 46 -54 -2 -3 -29 20 -58
50 -30 30 -51 55 -47 55 5 0 31 -23 59 -51z m-760 34 c-6 -2 -10 -8 -7 -13 3
-4 -7 -15 -20 -24 -14 -9 -23 -21 -20 -26 3 -6 -1 -7 -9 -4 -11 4 -7 13 17 40
18 19 36 34 42 33 5 0 4 -3 -3 -6z m-79 -91 c-10 -11 -21 -17 -25 -15 -5 2 -8
-1 -8 -8 0 -7 -3 -9 -7 -5 -4 4 3 16 17 26 32 25 45 26 23 2z m937 -36 c0 -10
-34 2 -38 13 -3 10 0 10 17 2 11 -7 21 -13 21 -15z m-1000 -26 c-13 -11 -26
-18 -28 -15 -6 6 28 34 42 35 5 0 -1 -9 -14 -20z m1120 -108 c0 -16 -35 15
-35 32 -1 6 -7 10 -15 8 -8 -2 -12 0 -7 4 4 4 -5 15 -20 25 -15 10 -28 25 -29
34 -1 9 22 -7 52 -37 30 -29 54 -59 54 -66z m-1190 40 c0 -5 -7 -9 -15 -9 -8
0 -12 4 -9 9 3 4 9 8 15 8 5 0 9 -4 9 -8z m1229 -71 c-1 -13 -2 -13 -6 2 -2 9
-9 15 -14 12 -5 -4 -9 1 -9 11 0 13 3 14 15 4 8 -7 14 -20 14 -29z m39 -39 c2
-7 7 -10 12 -7 4 2 15 -4 24 -14 10 -11 13 -22 8 -25 -6 -3 -21 7 -35 23 -14
17 -27 28 -30 25 -3 -3 -8 -1 -11 4 -3 6 2 9 11 8 9 -2 19 -8 21 -14z m121
-117 c0 -5 -3 -4 -6 3 -2 6 -8 10 -11 8 -4 -2 -18 11 -32 28 l-25 31 37 -30
c21 -17 38 -34 37 -40z m27 -31 c2 -12 -1 -13 -12 -3 -7 6 -11 16 -8 21 7 11
17 3 20 -18z m564 -355 l79 -159 59 118 c33 64 70 136 83 160 l23 42 78 0 c43
0 78 -3 78 -6 0 -3 -20 -43 -44 -87 -24 -45 -63 -118 -86 -162 -23 -44 -58
-108 -77 -142 l-35 -63 -81 0 -82 0 -43 83 c-72 140 -163 310 -183 343 -10 17
-19 33 -19 35 0 2 38 3 86 1 l85 -4 79 -159z m205 -559 c-3 -5 -12 -10 -18
-10 -7 0 -6 4 3 10 19 12 23 12 15 0z m34 -82 c11 -10 13 -10 7 0 -5 8 2 12
25 12 31 0 32 -1 14 -20 -15 -17 -16 -21 -2 -34 8 -8 38 -17 66 -19 62 -5 79
-17 54 -40 -16 -13 -79 -25 -173 -30 -14 -1 -31 -8 -38 -14 -23 -22 -33 -14
-11 8 12 12 27 18 37 15 15 -5 15 -4 0 8 -14 10 -18 27 -17 70 2 57 12 68 38
44z m-3067 -15 c10 -9 18 -20 18 -25 0 -11 -38 -10 -45 2 -10 15 -52 12 -59
-5 -10 -26 5 -45 35 -45 16 0 29 5 29 10 0 6 9 10 20 10 32 0 23 -30 -14 -45
-78 -33 -142 38 -89 98 20 22 80 22 105 0z m178 2 c0 -10 -10 -15 -31 -15 -31
0 -31 -1 -27 -45 3 -38 0 -45 -14 -45 -15 0 -18 9 -18 45 0 43 -1 45 -30 45
-20 0 -30 5 -30 15 0 12 15 15 75 15 60 0 75 -3 75 -15z m140 -4 c5 -11 10
-24 10 -30 0 -20 -33 -41 -66 -41 -22 0 -34 -5 -34 -14 0 -15 -24 -28 -34 -19
-3 4 -6 33 -6 65 l0 58 60 0 c48 0 61 -4 70 -19z m159 -8 c38 -47 7 -96 -60
-95 -52 1 -80 28 -73 69 7 35 31 52 76 53 28 0 41 -6 57 -27z m341 12 c0 -10
-10 -15 -31 -15 l-30 0 7 -45 c5 -38 4 -45 -10 -45 -9 0 -19 -1 -23 -2 -4 -2
-6 18 -4 45 2 45 1 47 -23 47 -16 0 -26 6 -26 15 0 12 14 15 70 15 56 0 70 -3
70 -15z m140 0 c0 -11 -12 -15 -45 -15 -25 0 -45 -4 -45 -10 0 -5 18 -10 40
-10 30 0 40 -4 40 -16 0 -14 -7 -15 -40 -10 -25 4 -40 2 -40 -4 0 -5 20 -10
45 -10 33 0 45 -4 45 -15 0 -12 -14 -15 -65 -15 l-64 0 2 60 2 60 63 0 c48 0
62 -3 62 -15z m154 -47 c-1 -49 -4 -62 -17 -64 -14 -2 -17 7 -17 47 0 46 -2
49 -25 49 -22 0 -25 -4 -25 -33 0 -37 -15 -57 -42 -57 -22 0 -24 26 -3 34 10
3 15 19 15 46 l0 40 58 0 57 0 -1 -62z m66 43 c0 -15 8 -20 36 -23 44 -4 65
-29 48 -55 -8 -13 -27 -19 -68 -21 l-56 -3 0 61 c0 53 2 60 20 60 13 0 20 -7
20 -19z m148 -2 c-2 -18 3 -22 30 -24 28 -2 32 0 32 21 0 16 6 24 18 24 14 0
17 -9 16 -62 -1 -49 -4 -62 -17 -64 -12 -2 -17 5 -17 26 0 25 -3 27 -32 25
-26 -2 -33 -7 -33 -25 0 -14 -7 -24 -17 -26 -16 -2 -18 6 -18 62 0 58 2 64 21
64 15 0 19 -5 17 -21z m159 2 c-4 -17 1 -20 37 -23 40 -3 41 -4 41 -38 l0 -35
-57 -5 -58 -5 0 62 c0 57 2 63 21 63 16 0 20 -5 16 -19z m143 -40 c0 -50 -3
-59 -20 -64 -18 -5 -20 0 -20 59 0 57 2 64 20 64 18 0 20 -7 20 -59z m140 44
c0 -11 -11 -15 -40 -15 -22 0 -40 -4 -40 -10 0 -5 18 -10 41 -10 51 0 49 -25
-2 -26 -19 0 -35 -5 -36 -9 -2 -5 15 -8 36 -6 26 1 40 -2 44 -12 8 -21 5 -22
-62 -19 l-61 4 0 59 0 59 60 0 c47 0 60 -3 60 -15z m204 -1 c9 -8 16 -20 16
-25 0 -12 -37 -12 -45 1 -9 15 -41 12 -56 -6 -9 -11 -10 -20 -2 -32 13 -21 49
-24 64 -6 15 18 39 18 39 0 0 -23 -28 -39 -70 -39 -22 0 -46 6 -55 13 -20 17
-19 69 2 92 20 23 85 24 107 2z m76 -26 l0 -41 30 41 c20 28 38 42 53 42 21 0
22 -3 19 -60 -3 -48 -7 -60 -21 -60 -13 0 -16 8 -13 40 2 22 2 40 -1 40 -2 0
-16 -18 -31 -40 -18 -28 -33 -40 -50 -40 -22 0 -23 4 -25 60 -1 54 1 60 19 60
17 0 20 -7 20 -42z m252 25 c10 -9 18 -20 18 -25 0 -11 -38 -10 -45 2 -17 27
-71 -2 -59 -33 8 -22 47 -30 60 -12 11 15 44 11 44 -5 0 -29 -78 -43 -118 -21
-31 16 -31 74 0 95 29 21 77 20 100 -1z m178 2 c0 -10 -10 -15 -31 -15 -30 0
-30 -1 -28 -47 3 -37 0 -47 -14 -49 -14 -2 -17 6 -17 47 0 45 -2 49 -24 49
-26 0 -40 12 -29 24 3 3 37 6 75 6 54 0 68 -3 68 -15z m140 0 c0 -11 -12 -15
-45 -15 -25 0 -45 -4 -45 -10 0 -5 18 -10 40 -10 30 0 40 -4 40 -16 0 -14 -7
-16 -40 -11 -29 4 -40 1 -40 -8 0 -9 12 -11 45 -7 37 4 45 2 45 -12 0 -13 -11
-16 -62 -16 l-63 0 0 60 0 60 63 0 c48 0 62 -3 62 -15z m84 -20 c10 -49 21
-51 35 -5 10 34 16 40 39 40 27 0 27 -1 27 -60 0 -50 -3 -60 -17 -60 -12 0
-18 10 -20 38 l-4 37 -10 -35 c-15 -50 -49 -54 -58 -6 -10 52 -30 59 -21 7 6
-37 5 -41 -14 -41 -19 0 -21 6 -21 60 0 59 0 60 29 60 25 0 30 -5 35 -35z
m166 16 c0 -16 8 -20 38 -23 35 -3 37 -5 37 -38 l0 -35 -57 -3 -58 -3 0 61 c0
53 2 60 20 60 13 0 20 -7 20 -19z m135 -41 c0 -50 -3 -60 -17 -60 -15 0 -18
10 -18 60 0 50 3 60 18 60 14 0 17 -10 17 -60z m-295 -130 c0 -5 -8 -10 -17
-10 -15 0 -16 2 -3 10 19 12 20 12 20 0z m-1960 -116 c0 -8 -4 -12 -10 -9 -5
3 -10 13 -10 21 0 8 5 12 10 9 6 -3 10 -13 10 -21z m54 -46 c-1 -14 3 -15 24
-7 21 8 29 7 38 -5 10 -14 75 -16 563 -16 494 0 592 4 539 23 -7 2 -1 4 15 4
15 0 30 -4 33 -9 3 -5 11 -4 19 2 9 8 15 8 20 0 7 -11 -32 -29 -57 -27 -8 1
-140 -119 -293 -268 -153 -148 -281 -270 -286 -270 -4 0 -131 123 -283 273
-220 218 -280 272 -296 267 -10 -3 -33 1 -49 9 -17 9 -39 16 -51 16 -17 0 -19
2 -8 14 18 20 73 15 72 -6z m2034 -5 c-10 -2 -26 -2 -35 0 -10 3 -2 5 17 5 19
0 27 -2 18 -5z m-1984 -54 c-3 -5 -10 -7 -15 -3 -5 3 -7 10 -3 15 3 5 10 7 15
3 5 -3 7 -10 3 -15z m1143 -4 c0 -8 -3 -13 -5 -10 -3 3 -14 -9 -24 -26 -11
-17 -21 -29 -24 -26 -8 7 -6 17 4 18 4 1 15 15 24 30 20 33 25 35 25 14z
m-1117 -15 c0 -5 -4 -10 -10 -10 -5 0 -10 5 -10 10 0 6 5 10 10 10 6 0 10 -4
10 -10z m70 -77 c0 -6 -16 3 -35 20 -19 17 -35 32 -35 33 0 10 69 -43 70 -53z
m974 20 c4 -10 4 -14 0 -10 -10 10 -35 -13 -27 -26 3 -6 1 -7 -6 -3 -6 4 -14
1 -17 -8 -3 -8 -22 -27 -42 -42 -21 -15 -30 -20 -22 -10 17 19 104 113 106
115 1 0 5 -7 8 -16z m-933 -57 c5 3 8 0 7 -7 -2 -7 2 -13 9 -14 6 0 14 -3 18
-7 4 -3 0 -5 -9 -4 -19 3 -56 36 -56 50 0 6 5 3 11 -7 6 -9 15 -15 20 -11z
m65 -65 c5 1 15 -9 21 -22 7 -13 13 -20 13 -15 0 6 16 -5 35 -24 19 -18 32
-37 29 -42 -6 -10 -45 20 -41 31 1 3 -1 6 -5 6 -11 0 -78 68 -78 79 0 6 4 5 9
-2 4 -8 12 -13 17 -11z m724 -33 c0 -6 -3 -8 -7 -5 -3 4 -15 0 -25 -10 -10 -9
-18 -11 -18 -5 0 11 27 31 43 32 4 0 7 -5 7 -12z m-71 -55 c-26 -34 -74 -78
-82 -75 -4 1 -10 -6 -14 -15 -7 -20 -53 -62 -67 -63 -6 0 5 11 24 25 19 14 30
25 24 25 -5 0 10 18 34 40 24 22 48 40 54 40 6 0 8 3 5 7 -4 3 1 12 11 19 23
18 27 17 11 -3z m-523 -50 c-7 -7 -26 7 -26 19 0 6 6 6 15 -2 9 -7 13 -15 11
-17z m44 -37 c0 -6 -5 -4 -10 4 -5 8 -10 11 -10 7 0 -5 -5 -5 -10 -2 -6 4 -8
11 -4 16 7 12 34 -8 34 -25z m30 -39 c0 -5 -4 -5 -10 -2 -5 3 -10 14 -10 23 0
15 2 15 10 2 5 -8 10 -19 10 -23z m45 -27 c10 -11 14 -20 9 -21 -5 0 0 -5 11
-10 17 -7 17 -8 2 -6 -10 1 -18 7 -18 12 -1 16 -20 35 -30 29 -5 -3 -9 0 -9 5
0 17 15 13 35 -9z m235 -20 c0 -5 -5 -10 -11 -10 -5 0 -7 5 -4 10 3 6 8 10 11
10 2 0 4 -4 4 -10z m-26 -32 c-3 -5 -9 -6 -14 -3 -5 3 -12 -4 -15 -15 -4 -12
-18 -26 -31 -32 -13 -6 -24 -16 -24 -21 0 -6 -3 -7 -6 -4 -8 8 67 83 83 83 7
1 10 -3 7 -8z m-119 -34 c9 -9 13 -19 10 -23 -4 -3 -12 1 -18 10 -7 9 -19 18
-27 22 -12 4 -12 6 2 6 9 1 24 -6 33 -15z"/>
<path d="M2843 4938 c-136 -134 -162 -168 -134 -168 5 0 71 61 147 135 l138
136 141 -141 c117 -117 143 -139 149 -124 6 14 -25 51 -141 166 l-148 147
-152 -151z"/>
<path d="M3405 4460 c3 -5 13 -10 21 -10 8 0 14 5 14 10 0 6 -9 10 -21 10 -11
0 -17 -4 -14 -10z"/>
<path d="M3693 4445 c0 -7 6 -11 14 -8 7 3 13 6 13 8 0 2 -6 5 -13 8 -8 3 -14
-1 -14 -8z"/>
<path d="M1800 3375 c0 -10 10 -15 30 -15 20 0 30 5 30 15 0 10 -10 15 -30 15
-20 0 -30 -5 -30 -15z"/>
<path d="M1963 3383 c-19 -7 -16 -41 5 -51 21 -12 62 2 62 21 0 29 -34 44 -67
30z"/>
<path d="M2750 3344 c0 -8 10 -14 25 -14 33 0 33 25 0 26 -15 1 -25 -3 -25
-12z"/>
<path d="M3060 3340 c0 -13 6 -16 25 -12 14 2 25 8 25 12 0 4 -11 10 -25 12
-19 4 -25 1 -25 -12z"/>
<path d="M4440 3340 c0 -13 6 -16 25 -12 31 5 28 27 -3 28 -15 1 -22 -5 -22
-16z"/>
<path d="M3305 2930 c3 -5 8 -10 11 -10 2 0 4 5 4 10 0 6 -5 10 -11 10 -5 0
-7 -4 -4 -10z"/>
<path d="M2694 2909 c-6 -10 65 -84 262 -270 l40 -38 154 154 c114 114 150
156 138 160 -11 4 -42 -20 -99 -76 -46 -45 -110 -106 -141 -136 l-57 -55 -137
136 c-75 75 -140 136 -145 136 -4 0 -11 -5 -15 -11z"/>
<path d="M2690 2736 c0 -2 8 -10 18 -17 15 -13 16 -12 3 4 -13 16 -21 21 -21
13z"/>
<path d="M2240 4656 c0 -8 4 -17 9 -20 5 -4 7 3 4 14 -6 23 -13 26 -13 6z"/>
<path d="M1100 4351 c0 -6 4 -13 10 -16 6 -3 7 1 4 9 -7 18 -14 21 -14 7z"/>
<path d="M1097 4299 c7 -7 15 -10 18 -7 3 3 -2 9 -12 12 -14 6 -15 5 -6 -5z"/>
<path d="M1930 4260 c-9 -6 -10 -10 -3 -10 6 0 15 5 18 10 8 12 4 12 -15 0z"/>
<path d="M2336 4263 c-15 -4 -16 -7 -5 -14 9 -5 -13 -9 -58 -9 -59 0 -73 -3
-73 -16 0 -8 -4 -12 -10 -9 -5 3 -10 1 -10 -4 0 -6 3 -11 8 -11 14 0 5 -229
-9 -247 -10 -11 -10 -14 -2 -9 9 5 11 2 7 -9 -5 -12 -9 -13 -20 -4 -12 9 -13
9 -9 -3 5 -11 -1 -15 -22 -15 -15 -1 -40 -3 -55 -5 -29 -6 -72 17 -63 33 4 5
1 9 -5 9 -7 0 -10 43 -9 137 1 93 -3 139 -10 141 -6 2 -9 7 -7 11 2 3 -34 5
-82 4 -55 -2 -88 -7 -94 -15 -4 -7 -8 -33 -8 -58 -1 -105 -6 -206 -11 -220 -3
-8 -4 -11 -1 -7 7 14 33 -46 27 -62 -3 -8 -3 -12 1 -9 3 4 17 -9 31 -29 19
-29 22 -38 11 -45 -9 -7 -8 -8 5 -4 11 3 27 -2 39 -14 12 -11 31 -20 42 -20
18 0 18 -2 6 -10 -11 -8 -8 -9 13 -4 15 3 27 2 27 -3 0 -8 184 -10 200 -2 3 1
10 3 15 4 6 1 24 8 40 14 17 7 35 14 42 15 7 1 16 6 20 11 4 4 1 5 -7 0 -11
-6 -12 -5 -4 4 6 7 20 14 30 15 11 2 20 12 22 25 3 19 6 20 19 9 14 -12 15
-11 5 9 -16 29 -15 36 3 29 13 -5 14 -2 4 15 -9 17 -8 20 2 14 9 -6 11 -2 7
13 -4 12 -3 20 2 17 4 -2 6 47 4 111 -2 65 0 123 6 134 7 13 7 21 0 25 -6 4
-8 10 -5 15 3 4 -7 11 -21 14 -17 5 -24 12 -20 21 3 8 4 14 3 14 -1 -1 -11 -4
-21 -6z m-356 -185 c1 -102 4 -148 14 -160 28 -38 110 -49 170 -24 49 20 58
53 54 200 l-3 126 78 0 79 0 -4 -152 c-4 -168 -12 -197 -72 -251 -91 -81 -328
-75 -408 11 -51 54 -59 83 -64 243 l-6 149 81 0 81 0 0 -142z m157 -174 c-3
-3 -12 -4 -19 -1 -8 3 -5 6 6 6 11 1 17 -2 13 -5z"/>
<path d="M2886 4255 c-3 -10 -19 -15 -46 -15 -23 0 -39 4 -36 8 3 5 -8 9 -24
9 -16 0 -28 -4 -27 -7 3 -13 -67 -70 -80 -65 -7 2 -12 -1 -10 -8 1 -7 -3 -11
-10 -10 -7 2 -10 -3 -7 -11 3 -7 -2 -19 -11 -26 -8 -7 -15 -11 -16 -9 0 2 -1
27 -2 54 0 28 -6 53 -11 57 -14 10 -158 10 -173 0 -6 -4 -15 -30 -18 -57 -4
-28 -9 -53 -12 -57 -2 -5 1 -8 6 -8 8 0 10 -55 7 -175 l-4 -175 24 -6 c15 -4
23 -12 20 -20 -3 -8 0 -11 9 -7 8 3 13 8 11 12 -2 3 20 4 50 3 37 -3 52 -8 48
-15 -3 -7 1 -4 9 6 8 9 18 17 23 17 5 0 7 25 5 56 -4 66 9 81 44 50 17 -15 20
-23 12 -29 -8 -6 -5 -7 6 -3 13 4 20 0 24 -14 3 -11 12 -20 20 -20 8 0 11 -5
7 -12 -4 -6 -3 -8 3 -5 6 4 18 -2 28 -13 13 -14 14 -20 5 -20 -7 0 -11 -1 -9
-3 2 -2 36 -1 76 2 39 3 69 3 67 0 -2 -4 14 -6 36 -5 24 0 34 4 27 9 -7 5 4 6
25 2 33 -5 114 -7 159 -3 9 1 16 6 16 12 1 6 2 38 3 71 2 56 4 60 26 60 12 -1
31 -8 40 -16 16 -12 17 -12 10 1 -5 8 3 2 17 -15 14 -16 23 -33 20 -38 -2 -4
1 -6 9 -5 7 2 12 -4 10 -14 -2 -13 2 -16 14 -11 13 5 15 1 10 -18 -3 -13 -3
-18 0 -11 8 18 24 4 18 -16 -5 -14 -4 -15 5 -2 10 14 16 7 12 -14 -1 -5 4 -4
11 2 8 6 45 10 86 9 55 -1 75 2 88 14 15 16 14 20 -8 53 -14 20 -27 33 -30 30
-3 -3 -5 1 -5 8 1 7 -2 14 -6 15 -10 3 -37 30 -37 37 0 3 8 6 18 7 11 1 9 4
-8 9 -14 4 -18 8 -9 9 9 1 32 16 51 35 50 48 62 120 31 179 -9 18 -16 36 -15
40 1 5 -2 6 -8 2 -9 -6 -14 8 -11 28 1 5 -3 6 -8 2 -6 -3 -21 1 -33 8 -13 8
-41 18 -63 23 -52 10 -415 11 -415 2 0 -5 -9 -8 -20 -8 -11 0 -20 -7 -20 -15
0 -8 -4 -15 -9 -15 -4 0 -48 -37 -96 -82 -48 -46 -94 -87 -101 -91 -8 -4 -14
-12 -14 -16 0 -4 55 -62 123 -129 l122 -122 -91 0 -91 0 -99 100 -99 101 3
-101 3 -100 -75 0 -76 0 0 230 0 230 75 0 75 0 0 -83 0 -84 83 84 82 83 87 0
c88 0 110 8 83 30 -10 9 -15 9 -15 1 0 -6 -4 -11 -10 -11 -5 0 -7 7 -4 15 4 8
4 15 1 15 -3 0 -7 -7 -11 -15z m559 -62 c53 -28 75 -68 75 -133 0 -47 -4 -56
-39 -91 -21 -22 -48 -39 -61 -39 -12 0 -20 -4 -18 -9 6 -17 112 -141 120 -141
4 0 8 -6 8 -12 0 -10 -22 -12 -87 -10 l-88 4 -59 74 c-59 74 -60 74 -108 74
l-48 0 0 -75 0 -75 -75 0 -75 0 0 231 0 230 208 -3 c189 -3 210 -5 247 -25z
m-478 -188 c0 -107 -3 -195 -8 -195 -14 0 -49 43 -42 53 3 6 1 7 -5 3 -6 -3
-17 0 -25 8 -8 8 -18 12 -22 8 -4 -4 -2 4 5 18 12 23 12 24 -4 11 -9 -8 -19
-11 -23 -7 -3 3 -1 6 5 6 17 0 15 17 -4 24 -8 3 -12 2 -9 -4 3 -6 -1 -7 -9 -4
-9 3 -16 10 -16 15 0 6 -13 23 -30 39 -29 29 -40 47 -20 35 6 -3 10 1 10 10 0
8 8 19 18 22 9 4 25 17 35 30 10 13 24 23 30 23 7 -1 1 -10 -12 -20 -13 -11
-20 -20 -15 -20 17 0 42 33 37 48 -4 10 -3 14 1 10 5 -4 19 5 33 20 14 15 28
26 31 25 4 -2 7 2 7 7 0 6 7 15 15 20 8 5 15 10 15 10 0 0 1 -88 2 -195z"/>
<path d="M3136 4064 l1 -47 109 2 c110 2 134 10 134 41 0 39 -31 50 -141 50
l-104 0 1 -46z m84 15 c0 13 32 12 90 -4 19 -5 22 -4 10 4 -13 9 -13 11 3 11
12 0 17 -8 17 -25 l0 -26 -87 3 c-73 3 -88 6 -91 20 -4 19 38 30 50 13 5 -6 8
-5 8 4z"/>
<path d="M2935 3859 c-10 -15 3 -25 16 -12 7 7 7 13 1 17 -6 3 -14 1 -17 -5z"/>
<path d="M1240 4253 c-39 -16 -41 -25 -39 -259 2 -174 5 -229 16 -239 7 -8 13
-19 13 -26 0 -7 6 -4 15 7 8 10 15 14 15 8 0 -13 109 -6 128 9 7 6 13 27 12
46 -4 74 -1 87 20 88 11 1 18 -2 15 -7 -3 -4 3 -7 12 -5 21 3 64 -42 87 -88 8
-18 19 -32 23 -32 4 0 8 -4 7 -10 0 -6 38 -10 97 -10 54 -1 96 2 93 6 -2 4 0
10 6 14 15 9 12 41 -5 59 -8 8 -15 19 -15 25 0 6 -9 15 -20 21 -11 6 -18 15
-15 21 4 5 -2 9 -12 10 -14 0 -14 2 5 9 12 5 22 11 22 14 0 2 -10 2 -22 -1
-22 -4 -22 -3 2 10 14 9 28 13 33 10 4 -2 6 -1 5 4 -3 12 38 74 45 67 13 -13
-5 112 -19 134 -8 12 -12 22 -9 22 3 0 -10 14 -28 30 -19 17 -43 30 -53 30
-16 0 -17 2 -4 10 18 11 23 11 -233 10 -126 0 -186 3 -182 10 7 11 7 11 -15 3z
m440 -59 c75 -44 102 -133 60 -201 -19 -32 -66 -63 -95 -63 -8 0 -15 -3 -15
-6 0 -4 29 -39 65 -79 36 -40 65 -76 65 -79 0 -3 -38 -6 -84 -6 l-84 0 -59 75
-58 74 -54 1 -53 0 4 -75 3 -76 -73 3 -73 3 -2 228 -2 228 210 -3 c190 -3 213
-5 245 -24z"/>
<path d="M1370 4063 l0 -48 112 3 c118 3 144 13 131 50 -14 39 -24 42 -134 42
l-109 0 0 -47z m200 10 c0 -7 6 -13 13 -14 38 -3 -68 -18 -120 -17 -57 1 -63
3 -63 22 0 20 6 21 85 22 64 0 85 -3 85 -13z"/>
<path d="M3749 4239 c-22 -10 -47 -16 -57 -13 -12 4 -13 3 -4 -3 9 -7 6 -12
-13 -21 -14 -6 -25 -16 -25 -21 0 -6 -7 -7 -17 -4 -11 4 -14 3 -9 -5 4 -7 -5
-24 -22 -40 -15 -15 -26 -34 -24 -41 3 -8 0 -11 -5 -8 -6 4 -11 -10 -12 -36 0
-23 -5 -57 -10 -75 -6 -20 -6 -30 0 -27 5 4 9 -8 9 -25 0 -18 4 -29 10 -25 6
3 10 -1 10 -10 0 -8 7 -18 15 -21 8 -4 13 -9 10 -14 -2 -4 9 -19 25 -34 17
-14 30 -23 30 -20 0 4 7 1 15 -6 8 -7 12 -17 8 -23 -4 -6 0 -8 10 -4 9 3 22 0
30 -7 7 -8 47 -17 88 -21 41 -3 82 -9 93 -12 10 -3 16 -1 13 4 -3 5 2 9 11 10
9 1 38 3 64 5 25 1 42 6 37 9 -6 3 15 21 45 40 31 18 56 37 56 42 0 4 4 5 10
2 6 -4 7 1 3 11 -4 12 -3 15 6 10 6 -4 11 -4 9 1 -1 4 6 26 16 48 22 47 32
140 14 129 -7 -4 -8 -3 -4 4 4 6 -1 26 -11 44 -9 18 -16 39 -15 46 2 7 -3 11
-10 10 -7 -2 -12 5 -12 14 1 10 -2 15 -8 12 -5 -3 -21 6 -35 20 -14 14 -32 26
-40 26 -8 0 -11 5 -8 11 4 6 1 10 -6 8 -35 -4 -48 1 -43 19 5 13 4 14 -4 3 -5
-7 -15 -10 -21 -7 -6 4 -50 9 -97 10 -64 2 -95 -2 -125 -15z m234 -24 c58 -17
117 -58 147 -102 80 -117 22 -281 -118 -333 -79 -30 -196 -30 -274 -1 -170 65
-211 274 -75 384 75 62 215 84 320 52z"/>
<path d="M3800 4092 c-58 -29 -78 -103 -43 -163 43 -72 193 -72 236 0 35 60
11 142 -48 167 -46 19 -103 18 -145 -4z m65 -12 c-6 9 1 10 26 5 56 -11 69
-16 69 -26 0 -6 -5 -7 -12 -3 -7 5 -8 3 -4 -5 5 -7 15 -10 23 -7 8 3 11 1 8
-5 -4 -5 -2 -16 5 -23 13 -17 3 -63 -16 -70 -8 -3 -14 -12 -14 -19 0 -8 -6
-15 -12 -16 -75 -11 -110 -12 -104 -2 4 6 2 11 -3 11 -6 0 -11 -5 -11 -11 0
-5 -5 -7 -10 -4 -6 4 -8 11 -5 16 3 5 -1 6 -9 3 -15 -6 -17 -2 -31 70 -8 37
26 82 58 77 4 0 7 4 7 9 0 7 7 7 21 -1 17 -8 20 -8 14 1z"/>
<path d="M2618 4243 c7 -3 16 -2 19 1 4 3 -2 6 -13 5 -11 0 -14 -3 -6 -6z"/>
<path d="M4057 4239 c7 -7 15 -10 18 -7 3 3 -2 9 -12 12 -14 6 -15 5 -6 -5z"/>
<path d="M4116 4233 c-6 -14 -5 -15 5 -6 7 7 10 15 7 18 -3 3 -9 -2 -12 -12z"/>
<path d="M3603 3807 c0 -8 6 -14 14 -14 9 0 10 4 2 14 -6 7 -12 13 -14 13 -1
0 -2 -6 -2 -13z"/>
<path d="M1529 3733 c-13 -16 -12 -17 4 -4 9 7 17 15 17 17 0 8 -8 3 -21 -13z"/>
<path d="M1140 3730 c0 -5 5 -10 10 -10 6 0 10 5 10 10 0 6 -4 10 -10 10 -5 0
-10 -4 -10 -10z"/>
<path d="M3300 3736 c0 -2 8 -10 18 -17 15 -13 16 -12 3 4 -13 16 -21 21 -21
13z"/>
<path d="M3580 3731 c0 -6 4 -13 10 -16 6 -3 7 1 4 9 -7 18 -14 21 -14 7z"/>
<path d="M4765 3731 c-6 -5 -19 -11 -30 -14 -16 -4 -14 -5 6 -6 16 -1 29 5 33
14 6 17 4 19 -9 6z"/>
<path d="M1180 3720 c-13 -8 -12 -10 3 -10 9 0 17 5 17 10 0 12 -1 12 -20 0z"/>
<path d="M4810 3700 c-9 -6 -10 -10 -3 -10 6 0 15 5 18 10 8 12 4 12 -15 0z"/>
<path d="M1213 3683 c4 -6 20 -16 37 -23 26 -11 28 -15 18 -28 -11 -13 -10
-14 11 -7 13 4 30 8 37 9 30 5 22 14 -24 29 -26 9 -56 19 -67 23 -12 5 -16 4
-12 -3z"/>
<path d="M4705 3680 c-4 -6 7 -10 27 -9 27 0 30 2 13 9 -27 12 -33 12 -40 0z"/>
<path d="M1225 3620 c3 -5 8 -10 11 -10 2 0 4 5 4 10 0 6 -5 10 -11 10 -5 0
-7 -4 -4 -10z"/>
<path d="M1180 3602 c0 -4 10 -9 22 -9 18 -2 20 0 8 7 -18 12 -30 13 -30 2z"/>
<path d="M1265 3590 c20 -22 35 -26 35 -10 0 6 -7 10 -15 10 -8 0 -15 5 -15
10 0 6 -5 10 -12 10 -6 0 -3 -9 7 -20z"/>
<path d="M3439 3535 c-3 -2 -214 -6 -469 -10 -256 -3 -537 -8 -625 -11 -153
-6 -352 -6 -405 1 -87 10 -500 16 -500 7 0 -7 71 -11 203 -12 111 0 236 -3
277 -7 106 -9 297 -7 1235 13 154 3 351 5 438 5 86 -1 157 2 157 6 0 8 -304
16 -311 8z"/>
<path d="M3760 3530 c0 -5 7 -10 16 -10 8 0 12 5 9 10 -3 6 -10 10 -16 10 -5
0 -9 -4 -9 -10z"/>
<path d="M3634 3462 c3 -5 0 -13 -6 -15 -9 -4 -10 -6 -1 -6 17 -1 25 16 12 25
-7 4 -9 3 -5 -4z"/>
<path d="M3120 3446 c0 -2 7 -7 16 -10 8 -3 12 -2 9 4 -6 10 -25 14 -25 6z"/>
<path d="M3915 3300 c3 -5 8 -10 11 -10 2 0 4 5 4 10 0 6 -5 10 -11 10 -5 0
-7 -4 -4 -10z"/>
<path d="M1719 3283 c-13 -16 -12 -17 4 -4 9 7 17 15 17 17 0 8 -8 3 -21 -13z"/>
<path d="M2090 3261 c0 -6 4 -13 10 -16 6 -3 7 1 4 9 -7 18 -14 21 -14 7z"/>
<path d="M3590 3260 c-9 -6 -10 -10 -3 -10 6 0 15 5 18 10 8 12 4 12 -15 0z"/>
<path d="M1488 3253 c7 -3 16 -2 19 1 4 3 -2 6 -13 5 -11 0 -14 -3 -6 -6z"/>
<path d="M1963 3253 c9 -2 25 -2 35 0 9 3 1 5 -18 5 -19 0 -27 -2 -17 -5z"/>
<path d="M2526 3243 c-6 -14 -5 -15 5 -6 7 7 10 15 7 18 -3 3 -9 -2 -12 -12z"/>
<path d="M3677 3247 c-3 -8 1 -14 8 -14 7 0 11 6 8 14 -3 7 -6 13 -8 13 -2 0
-5 -6 -8 -13z"/>
<path d="M3808 3253 c7 -3 16 -2 19 1 4 3 -2 6 -13 5 -11 0 -14 -3 -6 -6z"/>
<path d="M4390 3249 c0 -5 5 -7 10 -4 6 3 10 8 10 11 0 2 -4 4 -10 4 -5 0 -10
-5 -10 -11z"/>
<path d="M1615 3240 c-3 -6 1 -7 9 -4 18 7 21 14 7 14 -6 0 -13 -4 -16 -10z"/>
</g>
</svg>
